<mxfile host="app.diagrams.net" modified="2023-12-02T13:22:54.665Z" agent="Mozilla/5.0 (Windows NT 10.0; Win64; x64) AppleWebKit/537.36 (KHTML, like Gecko) Chrome/119.0.0.0 Safari/537.36" etag="1W7FX_Eut4sJsNjwmE8R" version="22.1.5" type="google">
  <diagram name="Page-1" id="5d7acffa-a066-3a61-03fe-96351882024d">
    <mxGraphModel grid="1" page="1" gridSize="10" guides="1" tooltips="1" connect="1" arrows="1" fold="1" pageScale="1" pageWidth="1100" pageHeight="850" background="#ffffff" math="0" shadow="0">
      <root>
        <mxCell id="0" />
        <mxCell id="1" parent="0" />
        <mxCell id="anGt9_UsShdb7OHsnaAH-1" value="1.3" style="swimlane;html=1;fontStyle=0;childLayout=stackLayout;horizontal=1;startSize=26;fillColor=#e0e0e0;horizontalStack=0;resizeParent=1;resizeLast=0;collapsible=1;marginBottom=0;swimlaneFillColor=#ffffff;align=center;rounded=1;shadow=0;comic=0;labelBackgroundColor=none;strokeWidth=1;fontFamily=Verdana;fontSize=12" vertex="1" parent="1">
          <mxGeometry x="770.5" y="50" width="160" height="140" as="geometry" />
        </mxCell>
        <mxCell id="anGt9_UsShdb7OHsnaAH-2" value="&lt;span style=&quot;font-size: 16px;&quot;&gt;review_feedback&lt;/span&gt;" style="text;align=center;fontStyle=1;verticalAlign=middle;spacingLeft=3;spacingRight=3;strokeColor=none;rotatable=0;points=[[0,0.5],[1,0.5]];portConstraint=eastwest;html=1;fontSize=16;" vertex="1" parent="anGt9_UsShdb7OHsnaAH-1">
          <mxGeometry y="26" width="160" height="104" as="geometry" />
        </mxCell>
        <mxCell id="anGt9_UsShdb7OHsnaAH-5" value="1.2" style="swimlane;html=1;fontStyle=0;childLayout=stackLayout;horizontal=1;startSize=26;fillColor=#e0e0e0;horizontalStack=0;resizeParent=1;resizeLast=0;collapsible=1;marginBottom=0;swimlaneFillColor=#ffffff;align=center;rounded=1;shadow=0;comic=0;labelBackgroundColor=none;strokeWidth=1;fontFamily=Verdana;fontSize=12" vertex="1" parent="1">
          <mxGeometry x="770.5" y="-310" width="160" height="140" as="geometry" />
        </mxCell>
        <mxCell id="anGt9_UsShdb7OHsnaAH-6" value="&lt;span style=&quot;font-size: 16px;&quot;&gt;set_movie_time&lt;/span&gt;" style="text;align=center;fontStyle=1;verticalAlign=middle;spacingLeft=3;spacingRight=3;strokeColor=none;rotatable=0;points=[[0,0.5],[1,0.5]];portConstraint=eastwest;html=1;fontSize=16;" vertex="1" parent="anGt9_UsShdb7OHsnaAH-5">
          <mxGeometry y="26" width="160" height="104" as="geometry" />
        </mxCell>
        <mxCell id="anGt9_UsShdb7OHsnaAH-20" style="edgeStyle=orthogonalEdgeStyle;rounded=0;orthogonalLoop=1;jettySize=auto;html=1;exitX=0.5;exitY=1;exitDx=0;exitDy=0;entryX=0.5;entryY=0;entryDx=0;entryDy=0;" edge="1" parent="1" source="anGt9_UsShdb7OHsnaAH-7" target="anGt9_UsShdb7OHsnaAH-5">
          <mxGeometry relative="1" as="geometry" />
        </mxCell>
        <mxCell id="anGt9_UsShdb7OHsnaAH-21" value="available&amp;nbsp; movies&amp;nbsp;" style="edgeLabel;html=1;align=center;verticalAlign=middle;resizable=0;points=[];" vertex="1" connectable="0" parent="anGt9_UsShdb7OHsnaAH-20">
          <mxGeometry x="-0.152" relative="1" as="geometry">
            <mxPoint as="offset" />
          </mxGeometry>
        </mxCell>
        <mxCell id="anGt9_UsShdb7OHsnaAH-7" value="1.1" style="swimlane;html=1;fontStyle=0;childLayout=stackLayout;horizontal=1;startSize=26;fillColor=#e0e0e0;horizontalStack=0;resizeParent=1;resizeLast=0;collapsible=1;marginBottom=0;swimlaneFillColor=#ffffff;align=center;rounded=1;shadow=0;comic=0;labelBackgroundColor=none;strokeWidth=1;fontFamily=Verdana;fontSize=12" vertex="1" parent="1">
          <mxGeometry x="770.5" y="-500" width="160" height="140" as="geometry" />
        </mxCell>
        <mxCell id="anGt9_UsShdb7OHsnaAH-8" value="&lt;span style=&quot;font-size: 16px;&quot;&gt;update_movies&amp;nbsp;&lt;/span&gt;" style="text;align=center;fontStyle=1;verticalAlign=middle;spacingLeft=3;spacingRight=3;strokeColor=none;rotatable=0;points=[[0,0.5],[1,0.5]];portConstraint=eastwest;html=1;fontSize=16;" vertex="1" parent="anGt9_UsShdb7OHsnaAH-7">
          <mxGeometry y="26" width="160" height="104" as="geometry" />
        </mxCell>
        <mxCell id="anGt9_UsShdb7OHsnaAH-11" style="edgeStyle=orthogonalEdgeStyle;rounded=1;orthogonalLoop=1;jettySize=auto;html=1;exitX=0;exitY=0;exitDx=55;exitDy=0;exitPerimeter=0;entryX=0;entryY=0.5;entryDx=0;entryDy=0;" edge="1" parent="1" source="anGt9_UsShdb7OHsnaAH-9" target="anGt9_UsShdb7OHsnaAH-6">
          <mxGeometry relative="1" as="geometry">
            <Array as="points">
              <mxPoint x="668" y="-175" />
              <mxPoint x="668" y="-232" />
            </Array>
          </mxGeometry>
        </mxCell>
        <mxCell id="anGt9_UsShdb7OHsnaAH-46" value="show time" style="edgeLabel;html=1;align=center;verticalAlign=middle;resizable=0;points=[];" vertex="1" connectable="0" parent="anGt9_UsShdb7OHsnaAH-11">
          <mxGeometry x="0.6419" y="1" relative="1" as="geometry">
            <mxPoint x="-14" y="-7" as="offset" />
          </mxGeometry>
        </mxCell>
        <mxCell id="anGt9_UsShdb7OHsnaAH-9" value="Entity" style="verticalAlign=top;align=left;spacingTop=8;spacingLeft=2;spacingRight=12;shape=cube;size=10;direction=south;fontStyle=4;html=1;whiteSpace=wrap;" vertex="1" parent="1">
          <mxGeometry x="378" y="-230" width="180" height="120" as="geometry" />
        </mxCell>
        <mxCell id="anGt9_UsShdb7OHsnaAH-10" value="Admin" style="text;html=1;align=center;verticalAlign=middle;resizable=0;points=[];autosize=1;strokeColor=none;fillColor=none;fontSize=17;fontStyle=1" vertex="1" parent="1">
          <mxGeometry x="423" y="-180" width="80" height="30" as="geometry" />
        </mxCell>
        <mxCell id="anGt9_UsShdb7OHsnaAH-12" value="" style="edgeStyle=none;orthogonalLoop=1;jettySize=auto;html=1;rounded=1;entryX=0;entryY=0.5;entryDx=0;entryDy=0;" edge="1" parent="1" target="anGt9_UsShdb7OHsnaAH-8">
          <mxGeometry width="100" relative="1" as="geometry">
            <mxPoint x="668" y="-220" as="sourcePoint" />
            <mxPoint x="708" y="-260" as="targetPoint" />
            <Array as="points">
              <mxPoint x="668" y="-420" />
            </Array>
          </mxGeometry>
        </mxCell>
        <mxCell id="anGt9_UsShdb7OHsnaAH-47" value="add, delete" style="edgeLabel;html=1;align=center;verticalAlign=middle;resizable=0;points=[];" vertex="1" connectable="0" parent="anGt9_UsShdb7OHsnaAH-12">
          <mxGeometry x="0.5645" relative="1" as="geometry">
            <mxPoint x="1" y="-9" as="offset" />
          </mxGeometry>
        </mxCell>
        <mxCell id="anGt9_UsShdb7OHsnaAH-39" style="edgeStyle=orthogonalEdgeStyle;rounded=1;orthogonalLoop=1;jettySize=auto;html=1;exitX=0;exitY=0;exitDx=65;exitDy=180;exitPerimeter=0;entryX=1;entryY=0.5;entryDx=0;entryDy=0;" edge="1" parent="1" source="anGt9_UsShdb7OHsnaAH-19" target="anGt9_UsShdb7OHsnaAH-23">
          <mxGeometry relative="1" as="geometry" />
        </mxCell>
        <mxCell id="anGt9_UsShdb7OHsnaAH-45" value="the chosen movie" style="edgeLabel;html=1;align=center;verticalAlign=middle;resizable=0;points=[];" vertex="1" connectable="0" parent="anGt9_UsShdb7OHsnaAH-39">
          <mxGeometry x="0.7966" y="1" relative="1" as="geometry">
            <mxPoint x="4" y="-9" as="offset" />
          </mxGeometry>
        </mxCell>
        <mxCell id="anGt9_UsShdb7OHsnaAH-19" value="Entity" style="verticalAlign=top;align=left;spacingTop=8;spacingLeft=2;spacingRight=12;shape=cube;size=10;direction=south;fontStyle=4;html=1;whiteSpace=wrap;" vertex="1" parent="1">
          <mxGeometry x="1498" y="-232" width="180" height="120" as="geometry" />
        </mxCell>
        <mxCell id="anGt9_UsShdb7OHsnaAH-35" style="edgeStyle=orthogonalEdgeStyle;rounded=0;orthogonalLoop=1;jettySize=auto;html=1;exitX=0.5;exitY=1;exitDx=0;exitDy=0;entryX=0.5;entryY=0;entryDx=0;entryDy=0;" edge="1" parent="1" source="anGt9_UsShdb7OHsnaAH-22" target="anGt9_UsShdb7OHsnaAH-33">
          <mxGeometry relative="1" as="geometry" />
        </mxCell>
        <mxCell id="anGt9_UsShdb7OHsnaAH-36" value="the chosen movie" style="edgeLabel;html=1;align=center;verticalAlign=middle;resizable=0;points=[];" vertex="1" connectable="0" parent="anGt9_UsShdb7OHsnaAH-35">
          <mxGeometry x="-0.088" y="-1" relative="1" as="geometry">
            <mxPoint as="offset" />
          </mxGeometry>
        </mxCell>
        <mxCell id="anGt9_UsShdb7OHsnaAH-22" value="2.1" style="swimlane;html=1;fontStyle=0;childLayout=stackLayout;horizontal=1;startSize=26;fillColor=#e0e0e0;horizontalStack=0;resizeParent=1;resizeLast=0;collapsible=1;marginBottom=0;swimlaneFillColor=#ffffff;align=center;rounded=1;shadow=0;comic=0;labelBackgroundColor=none;strokeWidth=1;fontFamily=Verdana;fontSize=12" vertex="1" parent="1">
          <mxGeometry x="1138" y="-500" width="160" height="140" as="geometry" />
        </mxCell>
        <mxCell id="anGt9_UsShdb7OHsnaAH-23" value="&lt;span style=&quot;font-size: 16px;&quot;&gt;choose a movie&lt;/span&gt;" style="text;align=center;fontStyle=1;verticalAlign=middle;spacingLeft=3;spacingRight=3;strokeColor=none;rotatable=0;points=[[0,0.5],[1,0.5]];portConstraint=eastwest;html=1;fontSize=16;" vertex="1" parent="anGt9_UsShdb7OHsnaAH-22">
          <mxGeometry y="26" width="160" height="104" as="geometry" />
        </mxCell>
        <mxCell id="anGt9_UsShdb7OHsnaAH-24" value="&lt;b&gt;D1&lt;/b&gt;" style="html=1;dashed=0;whiteSpace=wrap;shape=mxgraph.dfd.dataStoreID;align=left;spacingLeft=3;points=[[0,0],[0.5,0],[1,0],[0,0.5],[1,0.5],[0,1],[0.5,1],[1,1]];" vertex="1" parent="1">
          <mxGeometry x="983" y="-350" width="100" height="30" as="geometry" />
        </mxCell>
        <mxCell id="anGt9_UsShdb7OHsnaAH-32" style="edgeStyle=orthogonalEdgeStyle;rounded=1;orthogonalLoop=1;jettySize=auto;html=1;entryX=0;entryY=0.5;entryDx=0;entryDy=0;" edge="1" parent="1" source="anGt9_UsShdb7OHsnaAH-25" target="anGt9_UsShdb7OHsnaAH-23">
          <mxGeometry relative="1" as="geometry" />
        </mxCell>
        <mxCell id="anGt9_UsShdb7OHsnaAH-37" style="edgeStyle=orthogonalEdgeStyle;rounded=1;orthogonalLoop=1;jettySize=auto;html=1;entryX=0;entryY=0.5;entryDx=0;entryDy=0;" edge="1" parent="1" source="anGt9_UsShdb7OHsnaAH-25" target="anGt9_UsShdb7OHsnaAH-34">
          <mxGeometry relative="1" as="geometry" />
        </mxCell>
        <mxCell id="anGt9_UsShdb7OHsnaAH-25" value="movies,cinema&amp;nbsp;" style="text;html=1;align=center;verticalAlign=middle;resizable=0;points=[];autosize=1;strokeColor=none;fillColor=none;" vertex="1" parent="1">
          <mxGeometry x="1008" y="-350" width="110" height="30" as="geometry" />
        </mxCell>
        <mxCell id="anGt9_UsShdb7OHsnaAH-29" style="edgeStyle=orthogonalEdgeStyle;rounded=1;orthogonalLoop=1;jettySize=auto;html=1;exitX=1;exitY=0.5;exitDx=0;exitDy=0;entryX=0;entryY=0.5;entryDx=0;entryDy=0;" edge="1" parent="1" source="anGt9_UsShdb7OHsnaAH-8" target="anGt9_UsShdb7OHsnaAH-24">
          <mxGeometry relative="1" as="geometry" />
        </mxCell>
        <mxCell id="anGt9_UsShdb7OHsnaAH-31" value="" style="edgeStyle=none;orthogonalLoop=1;jettySize=auto;html=1;rounded=1;entryX=0;entryY=0.5;entryDx=0;entryDy=0;exitX=1;exitY=0.5;exitDx=0;exitDy=0;" edge="1" parent="1" source="anGt9_UsShdb7OHsnaAH-6" target="anGt9_UsShdb7OHsnaAH-24">
          <mxGeometry width="100" relative="1" as="geometry">
            <mxPoint x="908" y="-280" as="sourcePoint" />
            <mxPoint x="1008" y="-280" as="targetPoint" />
            <Array as="points">
              <mxPoint x="958" y="-232" />
              <mxPoint x="958" y="-335" />
            </Array>
          </mxGeometry>
        </mxCell>
        <mxCell id="anGt9_UsShdb7OHsnaAH-50" style="edgeStyle=orthogonalEdgeStyle;rounded=0;orthogonalLoop=1;jettySize=auto;html=1;exitX=0.5;exitY=1;exitDx=0;exitDy=0;entryX=0.5;entryY=0;entryDx=0;entryDy=0;" edge="1" parent="1" source="anGt9_UsShdb7OHsnaAH-33" target="anGt9_UsShdb7OHsnaAH-48">
          <mxGeometry relative="1" as="geometry" />
        </mxCell>
        <mxCell id="anGt9_UsShdb7OHsnaAH-52" value="the chosen movie/time" style="edgeLabel;html=1;align=center;verticalAlign=middle;resizable=0;points=[];" vertex="1" connectable="0" parent="anGt9_UsShdb7OHsnaAH-50">
          <mxGeometry x="-0.4667" y="-1" relative="1" as="geometry">
            <mxPoint as="offset" />
          </mxGeometry>
        </mxCell>
        <mxCell id="anGt9_UsShdb7OHsnaAH-33" value="2.2" style="swimlane;html=1;fontStyle=0;childLayout=stackLayout;horizontal=1;startSize=26;fillColor=#e0e0e0;horizontalStack=0;resizeParent=1;resizeLast=0;collapsible=1;marginBottom=0;swimlaneFillColor=#ffffff;align=center;rounded=1;shadow=0;comic=0;labelBackgroundColor=none;strokeWidth=1;fontFamily=Verdana;fontSize=12" vertex="1" parent="1">
          <mxGeometry x="1138" y="-310" width="160" height="140" as="geometry" />
        </mxCell>
        <mxCell id="anGt9_UsShdb7OHsnaAH-34" value="&lt;span style=&quot;font-size: 16px;&quot;&gt;select the time&amp;nbsp;&lt;/span&gt;" style="text;align=center;fontStyle=1;verticalAlign=middle;spacingLeft=3;spacingRight=3;strokeColor=none;rotatable=0;points=[[0,0.5],[1,0.5]];portConstraint=eastwest;html=1;fontSize=16;" vertex="1" parent="anGt9_UsShdb7OHsnaAH-33">
          <mxGeometry y="26" width="160" height="104" as="geometry" />
        </mxCell>
        <mxCell id="anGt9_UsShdb7OHsnaAH-38" value="user" style="text;html=1;align=center;verticalAlign=middle;resizable=0;points=[];autosize=1;strokeColor=none;fillColor=none;fontSize=17;fontStyle=1" vertex="1" parent="1">
          <mxGeometry x="1553" y="-180" width="60" height="30" as="geometry" />
        </mxCell>
        <mxCell id="anGt9_UsShdb7OHsnaAH-40" value="" style="edgeStyle=none;orthogonalLoop=1;jettySize=auto;html=1;rounded=1;entryX=1;entryY=0.5;entryDx=0;entryDy=0;" edge="1" parent="1" target="anGt9_UsShdb7OHsnaAH-34">
          <mxGeometry width="100" relative="1" as="geometry">
            <mxPoint x="1398" y="-220" as="sourcePoint" />
            <mxPoint x="1398" y="-160" as="targetPoint" />
            <Array as="points">
              <mxPoint x="1398" y="-232" />
            </Array>
          </mxGeometry>
        </mxCell>
        <mxCell id="anGt9_UsShdb7OHsnaAH-44" value="the chosen time" style="edgeLabel;html=1;align=center;verticalAlign=middle;resizable=0;points=[];" vertex="1" connectable="0" parent="anGt9_UsShdb7OHsnaAH-40">
          <mxGeometry x="0.1737" relative="1" as="geometry">
            <mxPoint y="-8" as="offset" />
          </mxGeometry>
        </mxCell>
        <mxCell id="anGt9_UsShdb7OHsnaAH-41" value="" style="edgeStyle=none;orthogonalLoop=1;jettySize=auto;html=1;rounded=1;entryX=1;entryY=0.5;entryDx=0;entryDy=0;" edge="1" parent="1" target="anGt9_UsShdb7OHsnaAH-2">
          <mxGeometry width="100" relative="1" as="geometry">
            <mxPoint x="1398" y="-180" as="sourcePoint" />
            <mxPoint x="1398" y="-90" as="targetPoint" />
            <Array as="points">
              <mxPoint x="1398" y="-40" />
              <mxPoint x="1398" y="130" />
            </Array>
          </mxGeometry>
        </mxCell>
        <mxCell id="anGt9_UsShdb7OHsnaAH-42" value="give feedback&amp;nbsp;" style="edgeLabel;html=1;align=center;verticalAlign=middle;resizable=0;points=[];" vertex="1" connectable="0" parent="anGt9_UsShdb7OHsnaAH-41">
          <mxGeometry x="0.7825" y="1" relative="1" as="geometry">
            <mxPoint x="-4" y="-9" as="offset" />
          </mxGeometry>
        </mxCell>
        <mxCell id="anGt9_UsShdb7OHsnaAH-57" style="edgeStyle=orthogonalEdgeStyle;rounded=0;orthogonalLoop=1;jettySize=auto;html=1;exitX=0.5;exitY=1;exitDx=0;exitDy=0;entryX=0.5;entryY=0;entryDx=0;entryDy=0;" edge="1" parent="1" source="anGt9_UsShdb7OHsnaAH-48" target="anGt9_UsShdb7OHsnaAH-56">
          <mxGeometry relative="1" as="geometry" />
        </mxCell>
        <mxCell id="anGt9_UsShdb7OHsnaAH-58" value="ticket info" style="edgeLabel;html=1;align=center;verticalAlign=middle;resizable=0;points=[];" vertex="1" connectable="0" parent="anGt9_UsShdb7OHsnaAH-57">
          <mxGeometry x="-0.24" relative="1" as="geometry">
            <mxPoint as="offset" />
          </mxGeometry>
        </mxCell>
        <mxCell id="anGt9_UsShdb7OHsnaAH-48" value="2.3" style="swimlane;html=1;fontStyle=0;childLayout=stackLayout;horizontal=1;startSize=26;fillColor=#e0e0e0;horizontalStack=0;resizeParent=1;resizeLast=0;collapsible=1;marginBottom=0;swimlaneFillColor=#ffffff;align=center;rounded=1;shadow=0;comic=0;labelBackgroundColor=none;strokeWidth=1;fontFamily=Verdana;fontSize=12" vertex="1" parent="1">
          <mxGeometry x="1138" y="-120" width="160" height="140" as="geometry" />
        </mxCell>
        <mxCell id="anGt9_UsShdb7OHsnaAH-49" value="&lt;span style=&quot;font-size: 16px;&quot;&gt;select the ticket&amp;nbsp;&lt;/span&gt;" style="text;align=center;fontStyle=1;verticalAlign=middle;spacingLeft=3;spacingRight=3;strokeColor=none;rotatable=0;points=[[0,0.5],[1,0.5]];portConstraint=eastwest;html=1;fontSize=16;" vertex="1" parent="anGt9_UsShdb7OHsnaAH-48">
          <mxGeometry y="26" width="160" height="104" as="geometry" />
        </mxCell>
        <mxCell id="anGt9_UsShdb7OHsnaAH-51" value="" style="edgeStyle=none;orthogonalLoop=1;jettySize=auto;html=1;rounded=1;entryX=1;entryY=0.5;entryDx=0;entryDy=0;" edge="1" parent="1" target="anGt9_UsShdb7OHsnaAH-49">
          <mxGeometry width="100" relative="1" as="geometry">
            <mxPoint x="1398" y="-60" as="sourcePoint" />
            <mxPoint x="1448" y="10" as="targetPoint" />
            <Array as="points">
              <mxPoint x="1398" y="-42" />
            </Array>
          </mxGeometry>
        </mxCell>
        <mxCell id="anGt9_UsShdb7OHsnaAH-53" value="vip/normal" style="edgeLabel;html=1;align=center;verticalAlign=middle;resizable=0;points=[];" vertex="1" connectable="0" parent="anGt9_UsShdb7OHsnaAH-51">
          <mxGeometry x="0.6095" relative="1" as="geometry">
            <mxPoint x="7" y="-8" as="offset" />
          </mxGeometry>
        </mxCell>
        <mxCell id="anGt9_UsShdb7OHsnaAH-54" value="" style="edgeStyle=none;orthogonalLoop=1;jettySize=auto;html=1;rounded=1;entryX=0;entryY=0.5;entryDx=0;entryDy=0;" edge="1" parent="1" target="anGt9_UsShdb7OHsnaAH-49">
          <mxGeometry width="100" relative="1" as="geometry">
            <mxPoint x="668" y="-190" as="sourcePoint" />
            <mxPoint x="728" y="-100" as="targetPoint" />
            <Array as="points">
              <mxPoint x="668" y="-42" />
            </Array>
          </mxGeometry>
        </mxCell>
        <mxCell id="anGt9_UsShdb7OHsnaAH-55" value="discount&amp;nbsp;" style="edgeLabel;html=1;align=center;verticalAlign=middle;resizable=0;points=[];" vertex="1" connectable="0" parent="anGt9_UsShdb7OHsnaAH-54">
          <mxGeometry x="0.8107" y="1" relative="1" as="geometry">
            <mxPoint x="-2" y="-7" as="offset" />
          </mxGeometry>
        </mxCell>
        <mxCell id="anGt9_UsShdb7OHsnaAH-63" style="edgeStyle=orthogonalEdgeStyle;rounded=0;orthogonalLoop=1;jettySize=auto;html=1;entryX=0.5;entryY=0;entryDx=0;entryDy=0;" edge="1" parent="1" source="anGt9_UsShdb7OHsnaAH-56" target="anGt9_UsShdb7OHsnaAH-60">
          <mxGeometry relative="1" as="geometry" />
        </mxCell>
        <mxCell id="anGt9_UsShdb7OHsnaAH-56" value="&lt;b&gt;D2&lt;/b&gt;" style="html=1;dashed=0;whiteSpace=wrap;shape=mxgraph.dfd.dataStoreID;align=left;spacingLeft=3;points=[[0,0],[0.5,0],[1,0],[0,0.5],[1,0.5],[0,1],[0.5,1],[1,1]];" vertex="1" parent="1">
          <mxGeometry x="1168" y="60" width="100" height="30" as="geometry" />
        </mxCell>
        <mxCell id="anGt9_UsShdb7OHsnaAH-59" value="ticket details&amp;nbsp;" style="text;html=1;align=center;verticalAlign=middle;resizable=0;points=[];autosize=1;strokeColor=none;fillColor=none;" vertex="1" parent="1">
          <mxGeometry x="1198" y="60" width="90" height="30" as="geometry" />
        </mxCell>
        <mxCell id="anGt9_UsShdb7OHsnaAH-60" value="3" style="swimlane;html=1;fontStyle=0;childLayout=stackLayout;horizontal=1;startSize=26;fillColor=#e0e0e0;horizontalStack=0;resizeParent=1;resizeLast=0;collapsible=1;marginBottom=0;swimlaneFillColor=#ffffff;align=center;rounded=1;shadow=0;comic=0;labelBackgroundColor=none;strokeWidth=1;fontFamily=Verdana;fontSize=12" vertex="1" parent="1">
          <mxGeometry x="1138" y="170" width="160" height="140" as="geometry" />
        </mxCell>
        <mxCell id="anGt9_UsShdb7OHsnaAH-61" value="&lt;span style=&quot;font-size: 16px;&quot;&gt;apply_payment&amp;nbsp;&lt;/span&gt;" style="text;align=center;fontStyle=1;verticalAlign=middle;spacingLeft=3;spacingRight=3;strokeColor=none;rotatable=0;points=[[0,0.5],[1,0.5]];portConstraint=eastwest;html=1;fontSize=16;" vertex="1" parent="anGt9_UsShdb7OHsnaAH-60">
          <mxGeometry y="26" width="160" height="104" as="geometry" />
        </mxCell>
        <mxCell id="anGt9_UsShdb7OHsnaAH-62" value="" style="edgeStyle=none;orthogonalLoop=1;jettySize=auto;html=1;rounded=1;entryX=1;entryY=0.5;entryDx=0;entryDy=0;" edge="1" parent="1" target="anGt9_UsShdb7OHsnaAH-61">
          <mxGeometry width="100" relative="1" as="geometry">
            <mxPoint x="1398" y="90" as="sourcePoint" />
            <mxPoint x="1448" y="180" as="targetPoint" />
            <Array as="points">
              <mxPoint x="1398" y="248" />
            </Array>
          </mxGeometry>
        </mxCell>
        <mxCell id="anGt9_UsShdb7OHsnaAH-64" value="pay" style="edgeLabel;html=1;align=center;verticalAlign=middle;resizable=0;points=[];" vertex="1" connectable="0" parent="anGt9_UsShdb7OHsnaAH-62">
          <mxGeometry x="0.7287" y="-1" relative="1" as="geometry">
            <mxPoint y="-7" as="offset" />
          </mxGeometry>
        </mxCell>
        <mxCell id="anGt9_UsShdb7OHsnaAH-65" value="" style="edgeStyle=none;orthogonalLoop=1;jettySize=auto;html=1;rounded=1;exitX=1.008;exitY=0.723;exitDx=0;exitDy=0;exitPerimeter=0;entryX=0.801;entryY=0.988;entryDx=0;entryDy=0;entryPerimeter=0;" edge="1" parent="1" source="anGt9_UsShdb7OHsnaAH-61" target="anGt9_UsShdb7OHsnaAH-19">
          <mxGeometry width="100" relative="1" as="geometry">
            <mxPoint x="1328" y="280" as="sourcePoint" />
            <mxPoint x="1428" y="280" as="targetPoint" />
            <Array as="points">
              <mxPoint x="1418" y="270" />
              <mxPoint x="1418" y="-136" />
            </Array>
          </mxGeometry>
        </mxCell>
        <mxCell id="anGt9_UsShdb7OHsnaAH-66" value="invoice" style="edgeLabel;html=1;align=center;verticalAlign=middle;resizable=0;points=[];" vertex="1" connectable="0" parent="anGt9_UsShdb7OHsnaAH-65">
          <mxGeometry x="0.8016" y="-1" relative="1" as="geometry">
            <mxPoint x="21" y="-13" as="offset" />
          </mxGeometry>
        </mxCell>
        <mxCell id="anGt9_UsShdb7OHsnaAH-67" value="ticket num" style="edgeLabel;html=1;align=center;verticalAlign=middle;resizable=0;points=[];" vertex="1" connectable="0" parent="anGt9_UsShdb7OHsnaAH-65">
          <mxGeometry x="0.8182" relative="1" as="geometry">
            <mxPoint x="13" y="10" as="offset" />
          </mxGeometry>
        </mxCell>
        <mxCell id="anGt9_UsShdb7OHsnaAH-69" value="Entity" style="verticalAlign=top;align=left;spacingTop=8;spacingLeft=2;spacingRight=12;shape=cube;size=10;direction=south;fontStyle=4;html=1;whiteSpace=wrap;" vertex="1" parent="1">
          <mxGeometry x="1128" y="360" width="180" height="120" as="geometry" />
        </mxCell>
        <mxCell id="anGt9_UsShdb7OHsnaAH-70" value="Bank" style="text;html=1;align=center;verticalAlign=middle;resizable=0;points=[];autosize=1;strokeColor=none;fillColor=none;fontSize=17;fontStyle=1" vertex="1" parent="1">
          <mxGeometry x="1183" y="410" width="70" height="30" as="geometry" />
        </mxCell>
        <mxCell id="anGt9_UsShdb7OHsnaAH-71" style="edgeStyle=orthogonalEdgeStyle;rounded=1;orthogonalLoop=1;jettySize=auto;html=1;exitX=0.5;exitY=1;exitDx=0;exitDy=0;" edge="1" parent="1" source="anGt9_UsShdb7OHsnaAH-60">
          <mxGeometry relative="1" as="geometry">
            <mxPoint x="1218" y="360" as="targetPoint" />
          </mxGeometry>
        </mxCell>
        <mxCell id="anGt9_UsShdb7OHsnaAH-73" value="deposit&amp;nbsp;" style="edgeLabel;html=1;align=center;verticalAlign=middle;resizable=0;points=[];" vertex="1" connectable="0" parent="anGt9_UsShdb7OHsnaAH-71">
          <mxGeometry x="-0.0892" y="2" relative="1" as="geometry">
            <mxPoint y="1" as="offset" />
          </mxGeometry>
        </mxCell>
        <mxCell id="anGt9_UsShdb7OHsnaAH-75" value="level 2" style="text;html=1;align=center;verticalAlign=middle;resizable=0;points=[];autosize=1;strokeColor=none;fillColor=none;fontSize=62;fontStyle=1" vertex="1" parent="1">
          <mxGeometry x="338" y="-460" width="210" height="90" as="geometry" />
        </mxCell>
        <mxCell id="anGt9_UsShdb7OHsnaAH-78" style="edgeStyle=orthogonalEdgeStyle;rounded=1;orthogonalLoop=1;jettySize=auto;html=1;exitX=0;exitY=0.5;exitDx=0;exitDy=0;entryX=0.667;entryY=-0.008;entryDx=0;entryDy=0;entryPerimeter=0;" edge="1" parent="1" source="anGt9_UsShdb7OHsnaAH-2" target="anGt9_UsShdb7OHsnaAH-9">
          <mxGeometry relative="1" as="geometry">
            <Array as="points">
              <mxPoint x="648" y="128" />
              <mxPoint x="648" y="-150" />
            </Array>
          </mxGeometry>
        </mxCell>
        <mxCell id="anGt9_UsShdb7OHsnaAH-79" value="feedback" style="edgeLabel;html=1;align=center;verticalAlign=middle;resizable=0;points=[];" connectable="0" vertex="1" parent="anGt9_UsShdb7OHsnaAH-78">
          <mxGeometry x="0.7973" y="2" relative="1" as="geometry">
            <mxPoint x="1" y="8" as="offset" />
          </mxGeometry>
        </mxCell>
      </root>
    </mxGraphModel>
  </diagram>
</mxfile>
